<?xml version="1.0" standalone="no"?>
<!DOCTYPE svg PUBLIC "-//W3C//DTD SVG 20010904//EN"
 "http://www.w3.org/TR/2001/REC-SVG-20010904/DTD/svg10.dtd">
<svg version="1.0" xmlns="http://www.w3.org/2000/svg"
 width="832.000000pt" height="832.000000pt" viewBox="0 0 832.000000 832.000000"
 preserveAspectRatio="xMidYMid meet">
<metadata>
Created by potrace 1.11, written by Peter Selinger 2001-2013
</metadata>
<g transform="translate(0.000000,832.000000) scale(0.100000,-0.100000)"
fill="#000000" stroke="none">
<path d="M4150 8302 c-71 -27 -103 -47 -147 -95 -51 -55 -62 -77 -101 -197
-59 -182 -104 -378 -206 -895 -177 -897 -259 -1363 -300 -1700 -15 -115 -35
-286 -47 -379 -29 -237 -59 -308 -125 -292 -24 6 -49 45 -65 100 -13 46 96
1499 182 2416 23 249 18 306 -36 417 -37 78 -86 129 -136 143 -18 6 -68 10
-109 10 -101 0 -164 -30 -226 -109 -76 -95 -89 -134 -153 -456 -69 -341 -81
-441 -171 -1395 -50 -540 -116 -1103 -137 -1175 -11 -40 -44 -65 -85 -65 -48
0 -76 14 -88 44 -5 13 -14 228 -20 477 -14 530 -9 661 46 1090 35 280 36 288
20 343 -22 74 -70 127 -153 168 -54 26 -77 32 -132 32 -74 0 -116 -17 -169
-68 -62 -58 -55 -31 -142 -551 -28 -165 -69 -433 -91 -595 -22 -162 -51 -360
-64 -440 -134 -804 -150 -1608 -45 -2326 43 -298 116 -687 166 -889 137 -549
447 -1219 683 -1476 184 -201 472 -341 846 -411 104 -19 153 -23 360 -22 409
0 652 49 907 181 133 68 224 141 388 309 303 311 410 465 857 1232 106 183
242 414 302 515 230 388 348 638 653 1387 149 365 161 408 123 450 -21 23 -21
22 22 44 56 28 95 113 154 335 25 90 29 119 20 137 -6 13 -17 24 -26 24 -8 0
-15 5 -15 10 0 6 9 10 19 10 28 0 31 21 10 80 -34 96 -86 128 -187 115 -161
-20 -291 -95 -400 -233 -107 -135 -196 -277 -271 -435 -46 -96 -112 -209 -199
-338 -71 -107 -163 -247 -206 -311 -109 -168 -181 -218 -244 -171 -52 39 -56
60 -38 222 8 80 18 238 21 351 4 113 15 331 25 485 30 421 50 857 60 1280 5
209 12 409 15 445 3 36 24 334 45 662 33 494 38 611 29 678 -28 229 -137 340
-331 340 -130 -1 -191 -38 -242 -150 -38 -82 -133 -507 -306 -1365 -93 -459
-134 -646 -251 -1130 -84 -350 -75 -319 -106 -355 -18 -22 -33 -30 -58 -30
-43 0 -70 33 -86 107 -12 51 -8 101 35 507 54 504 91 793 165 1287 28 185 58
419 66 520 9 101 25 240 37 309 24 141 29 385 10 504 -21 136 -92 235 -203
285 -53 25 -89 25 -149 3z m2435 -3972 c-7 -25 -14 -38 -14 -29 -1 18 20 82
25 77 2 -2 -3 -24 -11 -48z m50 -180 c12 -19 -12 -10 -31 11 -19 22 -19 22 3
10 12 -6 25 -16 28 -21z"/>
</g>
</svg>
